{
	"asset":{
		"generator":"Khronos glTF Blender I/O v3.5.30",
		"version":"2.0"
	},
	"extensionsUsed":[
		"KHR_materials_unlit"
	],
	"scene":0,
	"scenes":[
		{
			"name":"Scene",
			"nodes":[
				0,
				1,
				2,
				3,
				4,
				5,
				6
			]
		}
	],
	"nodes":[
		{
			"mesh":0,
			"name":"dirt-convcol",
			"translation":[
				1,
				0,
				0
			]
		},
		{
			"mesh":1,
			"name":"grass-convcol"
		},
		{
			"mesh":2,
			"name":"stone-convcol",
			"translation":[
				2,
				0,
				0
			]
		},
		{
			"mesh":3,
			"name":"void grass-convcol",
			"translation":[
				3,
				0,
				0
			]
		},
		{
			"mesh":4,
			"name":"crystal blue-convcol",
			"translation":[
				4,
				0,
				0
			]
		},
		{
			"mesh":5,
			"name":"grass_top-convcol",
			"translation":[
				0,
				1,
				0
			]
		},
		{
			"mesh":6,
			"name":"grass_left-convcol",
			"rotation":[
				-0.7071068286895752,
				0,
				0,
				0.7071068286895752
			],
			"translation":[
				0,
				2,
				0
			]
		}
	],
	"materials":[
		{
			"extensions":{
				"KHR_materials_unlit":{}
			},
			"name":"Material",
			"pbrMetallicRoughness":{
				"baseColorTexture":{
					"index":0,
					"texCoord":0
				},
				"metallicFactor":0,
				"roughnessFactor":0.9
			}
		}
	],
	"meshes":[
		{
			"name":"dirt",
			"primitives":[
				{
					"attributes":{
						"POSITION":0,
						"TEXCOORD_0":1,
						"NORMAL":2
					},
					"indices":3,
					"material":0
				}
			]
		},
		{
			"name":"grass",
			"primitives":[
				{
					"attributes":{
						"POSITION":4,
						"TEXCOORD_0":5,
						"NORMAL":6
					},
					"indices":3,
					"material":0
				}
			]
		},
		{
			"name":"stone",
			"primitives":[
				{
					"attributes":{
						"POSITION":7,
						"TEXCOORD_0":8,
						"NORMAL":9
					},
					"indices":3,
					"material":0
				}
			]
		},
		{
			"name":"void grass",
			"primitives":[
				{
					"attributes":{
						"POSITION":10,
						"TEXCOORD_0":11,
						"NORMAL":12
					},
					"indices":3,
					"material":0
				}
			]
		},
		{
			"name":"crystal blue",
			"primitives":[
				{
					"attributes":{
						"POSITION":13,
						"TEXCOORD_0":14,
						"NORMAL":15
					},
					"indices":3,
					"material":0
				}
			]
		},
		{
			"name":"grass_top",
			"primitives":[
				{
					"attributes":{
						"POSITION":16,
						"TEXCOORD_0":17,
						"NORMAL":18
					},
					"indices":19,
					"material":0
				}
			]
		},
		{
			"name":"grass_left",
			"primitives":[
				{
					"attributes":{
						"POSITION":20,
						"TEXCOORD_0":21,
						"NORMAL":22
					},
					"indices":19,
					"material":0
				}
			]
		}
	],
	"textures":[
		{
			"sampler":0,
			"source":0
		}
	],
	"images":[
		{
			"bufferView":4,
			"mimeType":"image/png",
			"name":"grass tilemap"
		}
	],
	"accessors":[
		{
			"bufferView":0,
			"componentType":5126,
			"count":24,
			"max":[
				0.5,
				0.5,
				0.5
			],
			"min":[
				-0.5,
				-0.5,
				-0.5
			],
			"type":"VEC3"
		},
		{
			"bufferView":1,
			"componentType":5126,
			"count":24,
			"type":"VEC2"
		},
		{
			"bufferView":2,
			"componentType":5126,
			"count":24,
			"type":"VEC3"
		},
		{
			"bufferView":3,
			"componentType":5123,
			"count":36,
			"type":"SCALAR"
		},
		{
			"bufferView":5,
			"componentType":5126,
			"count":24,
			"max":[
				0.5,
				0.5,
				0.5
			],
			"min":[
				-0.5,
				-0.5,
				-0.5
			],
			"type":"VEC3"
		},
		{
			"bufferView":6,
			"componentType":5126,
			"count":24,
			"type":"VEC2"
		},
		{
			"bufferView":7,
			"componentType":5126,
			"count":24,
			"type":"VEC3"
		},
		{
			"bufferView":8,
			"componentType":5126,
			"count":24,
			"max":[
				0.5,
				0.5,
				0.5
			],
			"min":[
				-0.5,
				-0.5,
				-0.5
			],
			"type":"VEC3"
		},
		{
			"bufferView":9,
			"componentType":5126,
			"count":24,
			"type":"VEC2"
		},
		{
			"bufferView":10,
			"componentType":5126,
			"count":24,
			"type":"VEC3"
		},
		{
			"bufferView":11,
			"componentType":5126,
			"count":24,
			"max":[
				0.5,
				0.5,
				0.5
			],
			"min":[
				-0.5,
				-0.5,
				-0.5
			],
			"type":"VEC3"
		},
		{
			"bufferView":12,
			"componentType":5126,
			"count":24,
			"type":"VEC2"
		},
		{
			"bufferView":13,
			"componentType":5126,
			"count":24,
			"type":"VEC3"
		},
		{
			"bufferView":14,
			"componentType":5126,
			"count":24,
			"max":[
				0.5,
				0.5,
				0.5
			],
			"min":[
				-0.5,
				-0.5,
				-0.5
			],
			"type":"VEC3"
		},
		{
			"bufferView":15,
			"componentType":5126,
			"count":24,
			"type":"VEC2"
		},
		{
			"bufferView":16,
			"componentType":5126,
			"count":24,
			"type":"VEC3"
		},
		{
			"bufferView":17,
			"componentType":5126,
			"count":4,
			"max":[
				0.5,
				0.5,
				0.5
			],
			"min":[
				-0.5,
				0.5,
				-0.5
			],
			"type":"VEC3"
		},
		{
			"bufferView":18,
			"componentType":5126,
			"count":4,
			"type":"VEC2"
		},
		{
			"bufferView":19,
			"componentType":5126,
			"count":4,
			"type":"VEC3"
		},
		{
			"bufferView":20,
			"componentType":5123,
			"count":6,
			"type":"SCALAR"
		},
		{
			"bufferView":21,
			"componentType":5126,
			"count":4,
			"max":[
				0.5,
				0.5,
				0.5
			],
			"min":[
				-0.5,
				0.5,
				-0.5
			],
			"type":"VEC3"
		},
		{
			"bufferView":22,
			"componentType":5126,
			"count":4,
			"type":"VEC2"
		},
		{
			"bufferView":23,
			"componentType":5126,
			"count":4,
			"type":"VEC3"
		}
	],
	"bufferViews":[
		{
			"buffer":0,
			"byteLength":288,
			"byteOffset":0,
			"target":34962
		},
		{
			"buffer":0,
			"byteLength":192,
			"byteOffset":288,
			"target":34962
		},
		{
			"buffer":0,
			"byteLength":288,
			"byteOffset":480,
			"target":34962
		},
		{
			"buffer":0,
			"byteLength":72,
			"byteOffset":768,
			"target":34963
		},
		{
			"buffer":0,
			"byteLength":3027,
			"byteOffset":840
		},
		{
			"buffer":0,
			"byteLength":288,
			"byteOffset":3868,
			"target":34962
		},
		{
			"buffer":0,
			"byteLength":192,
			"byteOffset":4156,
			"target":34962
		},
		{
			"buffer":0,
			"byteLength":288,
			"byteOffset":4348,
			"target":34962
		},
		{
			"buffer":0,
			"byteLength":288,
			"byteOffset":4636,
			"target":34962
		},
		{
			"buffer":0,
			"byteLength":192,
			"byteOffset":4924,
			"target":34962
		},
		{
			"buffer":0,
			"byteLength":288,
			"byteOffset":5116,
			"target":34962
		},
		{
			"buffer":0,
			"byteLength":288,
			"byteOffset":5404,
			"target":34962
		},
		{
			"buffer":0,
			"byteLength":192,
			"byteOffset":5692,
			"target":34962
		},
		{
			"buffer":0,
			"byteLength":288,
			"byteOffset":5884,
			"target":34962
		},
		{
			"buffer":0,
			"byteLength":288,
			"byteOffset":6172,
			"target":34962
		},
		{
			"buffer":0,
			"byteLength":192,
			"byteOffset":6460,
			"target":34962
		},
		{
			"buffer":0,
			"byteLength":288,
			"byteOffset":6652,
			"target":34962
		},
		{
			"buffer":0,
			"byteLength":48,
			"byteOffset":6940,
			"target":34962
		},
		{
			"buffer":0,
			"byteLength":32,
			"byteOffset":6988,
			"target":34962
		},
		{
			"buffer":0,
			"byteLength":48,
			"byteOffset":7020,
			"target":34962
		},
		{
			"buffer":0,
			"byteLength":12,
			"byteOffset":7068,
			"target":34963
		},
		{
			"buffer":0,
			"byteLength":48,
			"byteOffset":7080,
			"target":34962
		},
		{
			"buffer":0,
			"byteLength":32,
			"byteOffset":7128,
			"target":34962
		},
		{
			"buffer":0,
			"byteLength":48,
			"byteOffset":7160,
			"target":34962
		}
	],
	"samplers":[
		{
			"magFilter":9728,
			"minFilter":9984
		}
	],
	"buffers":[
		{
			"byteLength":7208,
			"uri":"data:application/octet-stream;base64,"
		}
	]
}
